<svg xmlns="http://www.w3.org/2000/svg" viewBox="0 0 64 64" role="img" aria-label="Bracelet HandRope">
  <path
    d="M31.6 9.8c13.5-.4 24 8.9 24.4 21.2.4 13.1-10 23.3-23.4 23.2C19 54.1 8.7 44.4 8.9 32.1 9.1 20.2 18.4 10.2 31.6 9.8Z"
    fill="none"
    stroke="#b294ff"
    stroke-width="7.2"
    stroke-linecap="round"
    stroke-linejoin="round"
  />
  <path
    d="M17.1 19.2c4.2-3.8 9.1-5.7 14.7-5.8M17.8 45.3c4 3.4 9 5.1 14.9 5"
    fill="none"
    stroke="#7c5cf3"
    stroke-width="2.4"
    stroke-linecap="round"
    opacity="0.9"
  />
  <path
    d="M45.8 18.8c6.6.8 11 6.4 10.5 13.4-.5 7.8-6.4 13.1-13.1 12.4-4.8-.5-8.3-3.9-8-7.8.2-2.9 2.3-5.3 5.7-6.4"
    fill="none"
    stroke="#e0ded7"
    stroke-width="6.1"
    stroke-linecap="round"
    stroke-linejoin="round"
    opacity="0.55"
  />
  <path
    d="M45.8 18.8c6.6.8 11 6.4 10.5 13.4-.5 7.8-6.4 13.1-13.1 12.4-4.8-.5-8.3-3.9-8-7.8.2-2.9 2.3-5.3 5.7-6.4"
    fill="none"
    stroke="#8d8c88"
    stroke-width="5.2"
    stroke-linecap="round"
    stroke-linejoin="round"
  />
  <path
    d="M41.4 27.6l9.2 11.3"
    fill="none"
    stroke="#d0cdc5"
    stroke-width="3.1"
    stroke-linecap="round"
  />
  <path
    d="M47.3 21.4c4.2 1.2 6.8 5 6.4 9.7"
    fill="none"
    stroke="#f0eee8"
    stroke-width="1.7"
    stroke-linecap="round"
    opacity="0.72"
  />
</svg>
